<mxfile host="app.diagrams.net" modified="2023-11-20T03:31:49.584Z" agent="Mozilla/5.0 (Windows NT 10.0; Win64; x64) AppleWebKit/537.36 (KHTML, like Gecko) Chrome/119.0.0.0 Safari/537.36" version="22.1.3" etag="LBccEN2R-lEpAnD1y3VW" type="github">
  <diagram name="第 1 页" id="ITmMmewFuesGDQrqVgK-">
    <mxGraphModel>
      <root>
        <mxCell id="0" />
        <mxCell id="1" parent="0" />
      </root>
    </mxGraphModel>
  </diagram>
</mxfile>
